HIERARCHY
ROOT root
{
	OFFSET 0.000000 0.000000 0.000000
	CHANNELS 6 Xposition Yposition Zposition Zrotation Yrotation Xrotation
	JOINT lhip
	{
		OFFSET 0.058581 -0.082280 -0.017664
		CHANNELS 3 Zrotation Yrotation Xrotation
		JOINT lknee
		{
			OFFSET 0.043451 -0.386469 0.008037
			CHANNELS 3 Zrotation Yrotation Xrotation
			JOINT lankle
			{
				OFFSET -0.014790 -0.426874 -0.037428
				CHANNELS 3 Zrotation Yrotation Xrotation
				JOINT ltoe
				{
					OFFSET 0.041054 -0.060286 0.122042
					CHANNELS 3 Zrotation Yrotation Xrotation
					End Site
					{
						OFFSET 0.000000 0.000000 0.000000
					}
				}
			}
		}
	}
	JOINT rhip
	{
		OFFSET -0.060310 -0.090513 -0.013543
		CHANNELS 3 Zrotation Yrotation Xrotation
		JOINT rknee
		{
			OFFSET -0.043257 -0.383688 -0.004843
			CHANNELS 3 Zrotation Yrotation Xrotation
			JOINT rankle
			{
				OFFSET 0.019056 -0.420046 -0.034562
				CHANNELS 3 Zrotation Yrotation Xrotation
				JOINT rtoe
				{
					OFFSET -0.034840 -0.062106 0.130323
					CHANNELS 3 Zrotation Yrotation Xrotation
					End Site
					{
						OFFSET 0.000000 0.000000 0.000000
					}
				}
			}
		}
	}
	JOINT lowerback
	{
		OFFSET 0.004439 0.124404 -0.038385
		CHANNELS 3 Zrotation Yrotation Xrotation
		JOINT upperback
		{
			OFFSET 0.004488 0.137956 0.026820
			CHANNELS 3 Zrotation Yrotation Xrotation
			JOINT chest
			{
				OFFSET -0.002265 0.056032 0.002855
				CHANNELS 3 Zrotation Yrotation Xrotation
				JOINT lowerneck
				{
					OFFSET -0.013390 0.211636 -0.033468
					CHANNELS 3 Zrotation Yrotation Xrotation
					JOINT upperneck
					{
						OFFSET 0.010113 0.088937 0.050410
						CHANNELS 3 Zrotation Yrotation Xrotation
						End Site
						{
							OFFSET 0.000000 0.000000 0.000000
						}
					}
				}
				JOINT lclavicle
				{
					OFFSET 0.071702 0.114000 -0.018898
					CHANNELS 3 Zrotation Yrotation Xrotation
					JOINT lshoulder
					{
						OFFSET 0.122921 0.045205 -0.019046
						CHANNELS 3 Zrotation Yrotation Xrotation
						JOINT lelbow
						{
							OFFSET 0.255332 -0.015649 -0.022946
							CHANNELS 3 Zrotation Yrotation Xrotation
							JOINT lwrist
							{
								OFFSET 0.265709 0.012698 -0.007375
								CHANNELS 3 Zrotation Yrotation Xrotation
								End Site
								{
									OFFSET 0.000000 0.000000 0.000000
								}
							}
						}
					}
				}
				JOINT rclavicle
				{
					OFFSET -0.082954 0.112472 -0.023707
					CHANNELS 3 Zrotation Yrotation Xrotation
					JOINT rshoulder
					{
						OFFSET -0.113228 0.046853 -0.008472
						CHANNELS 3 Zrotation Yrotation Xrotation
						JOINT relbow
						{
							OFFSET -0.260127 -0.014369 -0.031269
							CHANNELS 3 Zrotation Yrotation Xrotation
							JOINT rwrist
							{
								OFFSET -0.269108 0.006794 -0.006027
								CHANNELS 3 Zrotation Yrotation Xrotation
								End Site
								{
									OFFSET 0.000000 0.000000 0.000000
								}
							}
						}
					}
				}
			}
		}
	}
}
MOTION
Frames: 7
Frame Time: 0.033333
1.791535 0.759564 0.934745 -89.078396 -0.104161 96.873382 -0.715033 -4.933428 -23.811591 -8.962389 -10.264962 36.068325 4.345993 15.071472 -32.289261 0.000000 -0.000000 0.000000 1.507787 3.340434 -28.002153 2.135429 1.113489 41.367319 4.003035 -9.553039 -29.945605 0.000000 -0.000000 0.000000 -4.944371 3.877836 31.986836 1.858862 -0.147852 -3.377699 2.990879 -1.389141 5.005093 1.864184 4.949576 -16.552025 2.632206 -4.456935 -13.192088 -16.927025 8.630033 4.644909 -51.807827 8.162374 8.482006 -5.605145 -36.761938 22.291228 2.572233 -5.708680 -12.956512 19.254552 -5.644906 1.981906 58.643294 -11.362412 7.507299 -8.012690 18.024864 2.291913 3.725835 1.899859 -4.636372 
1.804756 0.762988 0.909657 -79.554045 3.649969 110.116421 9.632064 -11.374511 -45.802555 -12.133729 -7.327457 45.940190 4.750074 13.786348 -32.324967 0.000000 -0.000000 0.000000 3.126594 3.835392 -45.824359 3.542320 -4.864035 46.075620 1.509237 -15.451443 -31.028172 0.000000 -0.000000 0.000000 2.333889 -3.093979 20.301363 4.869044 -1.309467 -4.295475 0.693817 -1.959146 5.917719 1.482481 3.827906 -15.415086 1.931519 -4.005094 -14.266157 -18.684111 10.903070 7.557051 -51.839031 6.475365 10.942633 -2.926720 -35.769029 20.638575 -0.394769 -4.968925 -13.991352 19.123317 -8.355240 4.584934 56.818069 -10.390857 8.360248 -8.075645 17.372281 5.406390 5.998077 2.607752 -8.326854 
1.814031 0.768355 0.889528 -74.975028 4.955492 117.349270 18.139372 -13.981211 -58.736368 -14.988780 -2.991767 52.600724 6.797249 14.832963 -33.841643 0.000000 -0.000000 0.000000 -0.060144 6.216836 -56.515954 6.294185 -10.579770 49.611671 -0.065592 -21.621605 -32.634066 0.000000 -0.000000 0.000000 6.915722 -6.617886 13.152985 5.903996 -1.218414 -2.538863 -1.041787 -2.470729 6.454780 1.610458 1.826477 -16.141763 2.401479 -2.189328 -12.446009 -19.417272 9.145426 8.739530 -52.863608 7.707032 9.263592 -1.453932 -34.991619 18.231206 -0.923632 -6.140214 -10.963383 19.737360 -6.599286 5.643130 56.758681 -10.697637 8.280063 -9.421213 16.045102 3.574161 11.511543 2.861073 -9.061917 
1.811203 0.770142 0.869369 -74.954251 4.871301 118.068330 19.905473 -14.163881 -62.493974 -15.792614 0.369772 58.278707 7.431628 15.088718 -36.233881 0.000000 -0.000000 0.000000 -1.461398 6.510047 -60.274550 5.818040 -12.925316 55.758951 -0.057272 -21.604497 -35.590877 0.000000 -0.000000 0.000000 7.107465 -7.392749 14.994790 6.144921 -0.712497 -2.099831 -1.376428 -2.348626 5.502110 1.279171 2.244356 -16.389588 1.993909 -1.696235 -12.673851 -20.895954 7.887882 8.737138 -52.895679 7.869948 9.728562 0.237621 -33.863625 15.962667 -0.983323 -6.178648 -10.618813 21.244506 -5.541212 5.709503 55.821016 -10.123173 8.644895 -9.486297 14.919200 2.692293 11.564603 3.049115 -8.436659 
1.803944 0.772140 0.846883 -74.821945 4.886942 118.650844 20.687168 -13.892192 -65.526389 -16.133648 2.405746 63.941238 7.573026 15.275846 -38.551667 0.000000 -0.000000 0.000000 -2.057287 6.332391 -63.383630 5.260263 -14.629715 61.696637 -0.081497 -21.412015 -38.437130 0.000000 -0.000000 0.000000 7.374785 -8.271018 16.610738 6.196379 -0.319585 -2.929233 -1.599171 -2.238791 5.454215 1.383281 1.767909 -16.622507 1.485878 -1.920811 -11.995852 -23.145555 6.464827 8.719703 -52.776121 7.138840 9.718445 2.436301 -32.392714 12.437607 -0.246343 -6.342862 -9.367965 22.933001 -3.639666 6.084387 54.781928 -8.813854 9.058369 -9.114508 14.224655 1.865844 10.350860 3.141950 -7.625948 
1.791687 0.772643 0.825569 -75.341836 4.840429 118.034704 20.978577 -13.899829 -66.846035 -16.329642 4.369899 69.548638 7.075935 14.966204 -40.426959 0.000000 -0.000000 0.000000 -2.432091 6.474987 -64.489969 4.042181 -15.856534 67.485507 0.091971 -20.637326 -40.956770 0.000000 -0.000000 0.000000 7.234928 -8.758677 18.666996 6.039115 -0.061389 -2.976058 -1.911511 -1.990493 4.564557 1.673441 1.792594 -16.771591 1.031121 -2.397242 -11.359611 -25.628475 4.492150 8.119873 -52.609069 5.674158 9.875378 4.993144 -30.414425 8.291456 0.831179 -6.530731 -8.714313 25.083615 -1.281785 6.255778 53.489750 -6.574130 9.668344 -9.012707 13.400355 1.060944 8.888951 3.236942 -6.818720 
1.774290 0.772568 0.807263 -76.499116 4.659855 116.617861 20.232435 -14.105363 -66.317209 -16.345581 5.682412 74.762928 6.302100 14.410106 -42.085937 0.000000 -0.000000 0.000000 -2.371147 6.830726 -64.026508 3.168951 -16.108721 72.879446 0.623159 -19.693016 -43.429629 0.000000 -0.000000 0.000000 6.351904 -8.584672 20.336506 5.846210 -0.136798 -2.891329 -2.091154 -1.952102 4.183145 2.476292 3.278053 -17.604451 0.040022 -2.539875 -10.421923 -27.948548 2.384336 7.062516 -52.778655 2.910132 10.097980 8.321208 -28.041702 3.882013 2.450660 -6.673040 -7.917506 27.176387 1.099176 5.707154 52.107961 -2.885106 10.621607 -9.383183 12.886547 0.150931 7.144838 2.940356 -6.097508 
